PathFileType	4	(X/Y/Z)	12_2_46_p0_0-448_filt_butterworth.trc
DataRate	CameraRate	NumFrames	NumMarkers	Units	OrigDataRate	OrigDataStartFrame	OrigNumFrames
60.0	60.0	6	27	m	60.0	56	448
Frame#	Time	RHip			RKnee			RAnkle			RBigToe			RSmallToe			RHeel			LHip			LKnee			LAnkle			LBigToe			LSmallToe			LHeel			Neck			Head			Nose			RShoulder			RElbow			RWrist			RThumb			RIndex			RPinky			LShoulder			LElbow			LWrist			LThumb			LIndex			LPinky			
		X1	Y1	Z1	X2	Y2	Z2	X3	Y3	Z3	X4	Y4	Z4	X5	Y5	Z5	X6	Y6	Z6	X7	Y7	Z7	X8	Y8	Z8	X9	Y9	Z9	X10	Y10	Z10	X11	Y11	Z11	X12	Y12	Z12	X13	Y13	Z13	X14	Y14	Z14	X15	Y15	Z15	X16	Y16	Z16	X17	Y17	Z17	X18	Y18	Z18	X19	Y19	Z19	X20	Y20	Z20	X21	Y21	Z21	X22	Y22	Z22	X23	Y23	Z23	X24	Y24	Z24	X25	Y25	Z25	X26	Y26	Z26	X27	Y27	Z27	
56	0.9333333333333332	0.4218007394450213	0.9967037289221111	0.5030088966835963	0.4646870055768641	0.5366812265086781	0.5278661672795779	0.5087721663513693	0.12187713310395204	0.5596805259940356	0.4803579669838295	0.1256684421819515	0.375924682000213	0.540562687749782	0.12172250077215566	0.42134660359221227	0.4901556804941686	0.0322546678693972	0.6384782900481483	0.2242784673023183	0.9841191646851578	0.5006061841535479	0.2682460583234695	0.5114274201048362	0.5337272600319798	0.30737221744491433	0.12107627535827205	0.5562692877903245	0.3259341962206483	0.11769974215531476	0.38059373703642907	0.25492493179553644	0.11690194768840441	0.413878895647414	0.3293922090135124	0.06438754788931882	0.5997244968766291	0.2940513501668618	1.5144837558192232	0.5362889435376842	0.27122039812109255	1.7697266545342847	0.4884928111331832	0.2732113637971938	1.6541930710346624	0.42653188042007145	0.4537425362558456	1.4312576974816669	0.5211859676853178	0.4986702767749297	1.1868114839708046	0.49710626604813957	0.4256903067468218	1.0077477553821659	0.3515958059580476	0.3194233497992133	0.9306626077485475	0.30345199772833115	0.3245037399277293	0.9134648966834564	0.3058898207572907	0.3598676314532504	0.893082353807388	0.35830054634884195	0.14940499897830906	1.4225082632205286	0.5185078485263676	0.13786672776069217	1.1805868219858273	0.48349662957731704	0.2027384725039773	0.9792211921170247	0.36148961728366436	0.2740584343380399	0.9208708792614053	0.3259977450156625	0.2731885919362069	0.8958282428139481	0.32262251146883225	0.2538040658761588	0.8729395297051001	0.3705359102150855	
57	0.95	0.4218436120589098	0.9958352363571048	0.5011465606597189	0.4647362452742283	0.5362952905905536	0.5282236552916788	0.5091579863653317	0.12094308777174534	0.5601331328968203	0.47963044455304604	0.1255781658360842	0.37600084313539806	0.5399876222797202	0.12270891470441762	0.42004091157777335	0.4906353856767653	0.03156483798508224	0.6389010682514722	0.22442420255064396	0.9843787117686104	0.4963493035738345	0.2680410140779574	0.5122067714168607	0.5324532875878297	0.30717671847647615	0.12113657571759177	0.5552839823771437	0.32593795258664576	0.11769941754413188	0.38057129838491005	0.2543262127576708	0.11841071548329331	0.41147040979288846	0.3291334592375481	0.06478826594002408	0.5984867663941589	0.29423701096305377	1.514602104568321	0.5311655890476972	0.27124536957973894	1.7697683514048554	0.48844796844551625	0.2732206207275225	1.6535960470287785	0.42700891405867525	0.4543330260658389	1.431845075565281	0.5184065665181157	0.49951627332758963	1.1883453656390082	0.4969775960287324	0.4309463816810378	1.0073096619674402	0.35543147163820304	0.3293194286958282	0.9306285018062336	0.3006872276936795	0.3378459531676807	0.9145463713406987	0.30213587486335874	0.3734273719959962	0.8929910478623188	0.35137220333860625	0.14883829928369363	1.4225419413238765	0.5180936503353224	0.1369186964661881	1.1798016397928497	0.48206338245135016	0.19609451700262037	0.97604949363097	0.36421192866217866	0.2646820299064726	0.9097264237942123	0.3346046950885516	0.2601706405393358	0.8887747014907433	0.3290167640270979	0.2402002929010006	0.8696137163413497	0.3699307445390297	
58	0.9666666666666668	0.42184422943879374	0.9951565143774583	0.4993799100107809	0.46473096574789713	0.5359351109470564	0.5284156040954097	0.5095697409262011	0.12009175484348067	0.5606647268184539	0.47872888956975074	0.12554126472498123	0.3759322363840919	0.5393364761685874	0.12355000375636681	0.4179292667188708	0.49119407136800036	0.030752269759221674	0.6393974568988406	0.22463646703146573	0.984469030186789	0.49222725217617774	0.2677931821755235	0.513054508465347	0.5311027609678202	0.30700007330109313	0.12114828988023019	0.5544989672859119	0.32600243200271245	0.11774064685590915	0.3804955609882964	0.25365652785652115	0.1198792365004214	0.408886869328022	0.32888480560494904	0.06524203851559118	0.5973050849146434	0.2944185945275491	1.5149323050515662	0.5256186574279927	0.2712559465661517	1.7698060388782395	0.48837187271800897	0.2732688137576947	1.6528902010900897	0.4274191859630149	0.45473208617609495	1.4323128761812407	0.5161511932300671	0.499874305284309	1.1899688775450201	0.49679347999095913	0.43570734779662434	1.0059603154947312	0.36054963679095503	0.34052704888229857	0.9303574245571514	0.2987438843195925	0.3522507464095944	0.9145479912139185	0.2990205101530148	0.3861631227550436	0.8931163307208119	0.3407434027041763	0.14811807917451747	1.4226275434628055	0.5175508682108655	0.13610781031866812	1.1789158486690365	0.479941547001246	0.18878830003863908	0.971726237702747	0.36960370900989503	0.25475217905211867	0.900556445316969	0.3422705900537238	0.24694439403545004	0.8829587844861384	0.334045494527732	0.22529468542774767	0.8665327467225428	0.3694853449420109	
59	0.9833333333333332	0.42170364177608854	0.9947173740698015	0.4974548657335328	0.4646326888488412	0.535690632923236	0.5283595070244231	0.509909817105873	0.11931028399023083	0.56132006230657	0.477760290978368	0.12546864945447744	0.37583632525471056	0.5387038977902935	0.12407325792592172	0.4153367715056514	0.49178437180299434	0.029839633622464064	0.6399640531055105	0.22494905039857016	0.9845992914605263	0.48831022433056864	0.2675166541186351	0.5140062526565359	0.5297046551406245	0.3068501158960865	0.12111049073925166	0.5539439250783768	0.32612283928588814	0.11779247997795902	0.380441176283899	0.2530118645870924	0.1211091419145471	0.406484783604214	0.32864604583102225	0.0656787965811752	0.5962145767024077	0.2945647568548986	1.515411654707518	0.520505559939661	0.2712526804395568	1.769833764042473	0.48826763145715135	0.2734718267822148	1.652196622825121	0.4272917756794684	0.45494760289282743	1.4325942263654798	0.5147706481565328	0.4996848204292186	1.191439626087329	0.4966818284299171	0.44031145784816067	1.0033591274644935	0.3669918596100309	0.35231578413695325	0.9298090481792874	0.2972267362651562	0.36656123927041906	0.9129609985574811	0.2961787843710128	0.3979914439989238	0.8927141235862532	0.3282666051468782	0.1473724613694461	1.4224895582164732	0.5168885070093397	0.13537705412462908	1.1782896302892287	0.4771648922912858	0.1815244942970773	0.9666933432313128	0.37683892541300756	0.2450288144008973	0.8939200511419213	0.3477801596926866	0.23480331771949248	0.8789217518946363	0.336842059023987	0.21047843916424736	0.8634092807802953	0.3708028117419457	
60	1.0	0.4214438233096074	0.9945468432007498	0.49518225440789665	0.4644548955699327	0.535603968849362	0.5280322377999649	0.5101087388523755	0.11861572277406651	0.562032192168937	0.4768607947241409	0.12543585310113142	0.37569389023161326	0.5381942149879053	0.12425591185350747	0.4127938647829525	0.4923176715873579	0.02891169635161432	0.640605427200964	0.22543467223529853	0.9848684777699086	0.48446831588679956	0.26724027600044703	0.5150358979746719	0.5282985449261731	0.3067359285811585	0.1209964501038279	0.5536476115812462	0.3262201694835201	0.1178931294394458	0.3803859019331987	0.25248850535976597	0.12193065458549897	0.40461056806879325	0.3284158933105835	0.06602269978462023	0.595250087005426	0.2946515560351869	1.515901310421543	0.5167519290858392	0.2712465956473538	1.769849136171975	0.48814971558362785	0.27390209923056186	1.6516500098444664	0.42628014757515975	0.45511903592183944	1.432683975220219	0.5143778714619153	0.4992367375563186	1.1926026668544976	0.4966950698653563	0.44506772335726585	0.9994955019278778	0.3743766113331614	0.36375241806844993	0.9287809158094577	0.29597503238840783	0.379837549537021	0.909718952440266	0.2937008727023067	0.40909524408026915	0.8911506489366888	0.3167224066309272	0.146715860481234	1.4219324212919568	0.5161746006020109	0.13471552263221878	1.1780399700386963	0.47391048104654554	0.17507230531679133	0.9615962399116492	0.3845584764946282	0.23625507147162061	0.8897439579345412	0.3501988407345436	0.22460017718485825	0.8766161520288878	0.3372987682836599	0.19706087690302365	0.8598128113115286	0.37507326663298995	
61	1.0166666666666666	0.42121364333674666	0.9947007837699018	0.49255233816631	0.4642237119191736	0.535657492959024	0.5274414453757529	0.5101380473954371	0.11792195647040568	0.5626730585131329	0.4761729188914861	0.12566553013335524	0.37523790309768257	0.5379067802364299	0.12407133979963429	0.41082665887454506	0.49271632647232927	0.028021902219207185	0.6413091413495918	0.22612904863350364	0.9852204801564057	0.480546291242064	0.26699253579710786	0.5160609414062447	0.5269191368719127	0.30666541987231	0.12076405797135638	0.5536014064421445	0.3261395438917842	0.11808034894304512	0.380242575115232	0.2521693549245482	0.12227942319060517	0.40352874760343244	0.3281976914125301	0.06623404641445164	0.594448674110978	0.2946729414735014	1.5162215778124553	0.5149752781553636	0.27126326081541774	1.7698535891321299	0.4880602909355161	0.27453494762921193	1.6513136395947488	0.4243834620337309	0.45543117978605874	1.4326570768839626	0.5146920839376037	0.4989814118311869	1.193391328401858	0.4967759655442745	0.4500394224120955	0.9946313263395509	0.3818090596793556	0.37410035794989777	0.9271534737706533	0.2948619559871719	0.3914904465808863	0.9051426410780199	0.2919323572301445	0.4194124567545545	0.8879778262394743	0.3090566991605459	0.1462388847861686	1.4209334707482915	0.5155089591195481	0.13412237076732023	1.1779727338901744	0.4707746431864095	0.16977569886295524	0.9571143658295672	0.391440464291611	0.2289530082672857	0.887621591377215	0.34939523969932584	0.21650244084678055	0.8754844660875946	0.3365620663151902	0.1859017914403684	0.8555764163565056	0.38234351176352704	
